<?xml version="1.0" standalone="no"?>
<!DOCTYPE svg PUBLIC "-//W3C//DTD SVG 20010904//EN"
 "http://www.w3.org/TR/2001/REC-SVG-20010904/DTD/svg10.dtd">
<svg version="1.0" xmlns="http://www.w3.org/2000/svg"
 width="980.000000pt" height="904.000000pt" viewBox="0 0 980.000000 904.000000"
 preserveAspectRatio="xMidYMid meet">
<metadata>
Created by potrace 1.16, written by Peter Selinger 2001-2019
</metadata>
<g transform="translate(0.000000,904.000000) scale(0.100000,-0.100000)"
fill="#000000" stroke="none">
<path d="M2982 9028 c-165 -23 -352 -111 -483 -227 -118 -104 -224 -274 -269
-431 -32 -108 -39 -328 -15 -436 35 -163 112 -313 218 -430 26 -29 47 -54 47
-58 0 -3 -203 -316 -451 -696 l-451 -690 -52 7 c-84 13 -284 7 -386 -11 -197
-35 -406 -124 -571 -243 -100 -71 -260 -235 -326 -333 -106 -157 -183 -342
-220 -527 -26 -132 -24 -395 5 -530 118 -549 525 -954 1080 -1075 140 -31 396
-31 539 0 112 24 251 71 327 109 l49 25 38 -39 c20 -21 518 -527 1107 -1126
l1069 -1087 -19 -68 c-25 -86 -36 -306 -19 -394 62 -325 270 -580 573 -701
167 -67 383 -80 561 -34 355 93 620 382 678 741 18 116 7 301 -25 409 l-26 88
1189 1208 1189 1208 94 -26 c83 -22 111 -25 273 -25 196 1 246 9 410 73 230
89 451 293 569 528 176 351 147 775 -75 1104 -54 82 -175 207 -260 269 -227
169 -551 246 -829 196 -41 -8 -79 -10 -83 -6 -5 4 -293 444 -642 976 l-632
969 17 35 c41 82 64 182 64 285 0 190 -57 328 -194 466 -69 70 -101 94 -170
128 -340 166 -737 27 -897 -316 l-34 -73 -964 0 -965 0 -5 28 c-17 79 -62 200
-100 267 -192 336 -556 517 -933 463z m3056 -1332 c84 -128 240 -237 388 -272
78 -18 240 -21 294 -5 26 8 37 8 46 -2 12 -13 1214 -1853 1214 -1859 0 -1 -30
-34 -66 -73 -113 -119 -199 -260 -248 -407 l-25 -73 -960 -3 -961 -2 -21 42
c-102 200 -311 347 -519 365 l-66 6 -672 1029 -672 1029 54 67 c30 37 73 102
96 145 l42 77 1017 0 1017 0 42 -64z m-2928 -491 c52 0 122 4 155 8 l60 8 653
-1001 653 -1001 -35 -42 c-55 -68 -93 -137 -122 -222 -25 -71 -28 -94 -28
-205 0 -114 2 -133 30 -211 71 -200 215 -344 416 -417 65 -24 87 -27 208 -27
147 0 189 9 305 67 117 59 222 162 285 280 l31 58 953 0 952 0 24 -82 c32
-113 118 -279 190 -367 l60 -73 -78 -83 c-42 -45 -551 -564 -1131 -1153
l-1055 -1072 -30 21 c-60 40 -192 98 -276 121 -118 32 -336 32 -455 -1 -91
-24 -201 -74 -279 -126 l-54 -36 -319 323 c-779 787 -1793 1822 -1793 1829 0
4 22 37 49 73 310 409 362 967 135 1429 -108 219 -275 411 -472 540 -40 27
-61 46 -57 55 3 8 197 308 432 667 l427 653 35 -6 c20 -4 79 -7 131 -7z"/>
</g>
</svg>
