<?xml version="1.0" standalone="no"?>
<!DOCTYPE svg PUBLIC "-//W3C//DTD SVG 20010904//EN"
 "http://www.w3.org/TR/2001/REC-SVG-20010904/DTD/svg10.dtd">
<svg version="1.0" xmlns="http://www.w3.org/2000/svg"
 width="200.000000pt" height="200.000000pt" viewBox="0 0 200.000000 200.000000"
 preserveAspectRatio="xMidYMid meet">
<metadata>
Created by potrace 1.16, written by Peter Selinger 2001-2019
</metadata>
<g transform="translate(0.000000,200.000000) scale(0.100000,-0.100000)"
fill="#000000" stroke="none">
<path d="M443 1884 c-3 -9 4 -39 16 -68 41 -92 43 -88 -39 -65 -83 24 -103 20
-98 -18 3 -24 10 -29 76 -46 39 -11 72 -23 72 -27 0 -3 -29 -28 -65 -54 -48
-35 -65 -54 -65 -71 0 -48 36 -41 123 27 42 33 44 30 26 -53 -10 -44 -9 -54 5
-67 26 -26 49 -3 64 64 7 32 15 60 17 62 2 2 21 -8 42 -22 21 -15 67 -35 102
-46 119 -37 244 -22 451 56 88 33 102 36 181 32 103 -5 166 -35 193 -93 20
-41 16 -74 -17 -128 l-22 -37 -45 30 c-64 42 -87 39 -144 -19 -42 -43 -48 -53
-42 -77 20 -78 182 -240 260 -260 24 -6 35 0 77 42 59 58 61 78 18 146 -29 44
-30 50 -16 66 38 42 67 126 67 196 0 117 -57 197 -179 255 -48 22 -69 26 -151
26 -89 0 -104 -4 -250 -55 -145 -51 -161 -54 -250 -55 -81 0 -102 4 -144 24
l-50 25 45 18 c75 30 94 43 97 66 6 42 -21 39 -166 -16 -8 -3 -4 18 12 62 29
76 26 99 -12 94 -22 -2 -30 -13 -51 -66 l-25 -64 -29 66 c-25 55 -34 66 -54
66 -13 0 -26 -7 -30 -16z"/>
<path d="M855 1384 c-112 -27 -202 -80 -295 -174 -134 -134 -191 -271 -191
-460 0 -189 57 -326 191 -460 134 -135 268 -190 460 -190 182 0 324 56 453
179 89 84 153 196 182 318 27 111 13 324 -24 383 -8 12 -12 12 -29 -3 -44 -40
-143 2 -248 107 -104 104 -147 204 -108 247 23 26 12 36 -66 53 -85 20 -244
19 -325 0z m155 -174 c0 -37 -2 -40 -28 -40 -39 0 -130 -28 -172 -52 -50 -30
-127 -106 -154 -153 -30 -51 -56 -138 -56 -187 0 -38 0 -38 -40 -38 -40 0 -40
0 -40 38 0 58 33 165 71 228 80 133 251 239 392 243 25 1 27 -2 27 -39z"/>
</g>
</svg>
