<svg width="101" height="81" viewBox="0 0 101 81" fill="white" xmlns="http://www.w3.org/2000/svg">
<path d="M94.2258 20.6766C89.7099 14.3158 83.5845 9.27995 75.8478 5.56789C68.1099 1.85565 59.6625 0 50.4995 0C41.3377 0 32.8875 1.85622 25.1513 5.56789C17.4139 9.27976 11.2887 14.3158 6.77285 20.6766C2.2577 27.0373 0 33.9831 0 41.514C0 50.5603 3.21047 58.695 9.63303 65.9201C16.0549 73.1458 24.351 78.1457 34.5206 80.9204C35.7044 81.101 36.5807 80.974 37.1505 80.5425C37.7205 80.1104 38.0052 79.5693 38.0052 78.9214C38.0052 78.8133 37.9939 77.8407 37.972 76.0025C37.9495 74.1642 37.9389 72.5606 37.9389 71.1923L36.4264 71.4074C35.4621 71.5526 34.2457 71.6141 32.777 71.5967C31.309 71.5799 29.7851 71.4534 28.2073 71.2182C26.6287 70.9852 25.1605 70.4446 23.8015 69.5977C22.4431 68.7508 21.4788 67.6423 20.9088 66.2738L20.2513 65.0299C19.813 64.2018 19.123 63.2818 18.1804 62.2734C17.2378 61.2641 16.2845 60.5798 15.3202 60.2195L14.8598 59.9486C14.5531 59.7685 14.2684 59.5514 14.0052 59.2994C13.7422 59.0474 13.5452 58.7952 13.4137 58.5426C13.282 58.2898 13.3912 58.0825 13.7424 57.9199C14.0936 57.7572 14.7283 57.6783 15.6493 57.6783L16.9639 57.8398C17.8407 57.9843 18.9252 58.4157 20.2188 59.1369C21.5118 59.8575 22.5746 60.7943 23.4077 61.947C24.4164 63.4249 25.6317 64.5511 27.0571 65.326C28.4813 66.101 29.9173 66.4878 31.3636 66.4878C32.8099 66.4878 34.0591 66.3976 35.1116 66.2183C36.163 66.0381 37.1494 65.7672 38.0704 65.407C38.4649 62.9915 39.539 61.1359 41.2919 59.8388C38.7935 59.6229 36.5473 59.2978 34.5522 58.8656C32.5582 58.4328 30.4977 57.7304 28.3719 56.7564C26.245 55.7838 24.4807 54.5761 23.0783 53.1353C21.6758 51.6937 20.5247 49.8011 19.6267 47.4593C18.7283 45.1165 18.279 42.4139 18.279 39.3509C18.279 34.9896 20.0109 31.2783 23.474 28.2149C21.8517 24.9361 22.0049 21.2604 23.9339 17.1882C25.2052 16.8635 27.0905 17.1072 29.5889 17.9177C32.0877 18.7286 33.9172 19.4233 35.0794 19.9992C36.2415 20.575 37.1726 21.0629 37.8741 21.4586C41.9517 20.522 46.1596 20.0535 50.4991 20.0535C54.8385 20.0535 59.0474 20.522 63.1252 21.4586L65.6238 20.1618C67.3324 19.2966 69.3501 18.5037 71.6721 17.7829C73.9954 17.0625 75.772 16.864 77 17.1888C78.9719 21.2611 79.1476 24.9366 77.5249 28.2155C80.9877 31.2789 82.7203 34.9911 82.7203 39.3515C82.7203 42.4145 82.2694 45.1255 81.3724 47.4863C80.4742 49.8475 79.3132 51.7382 77.889 53.1623C76.4631 54.5863 74.6875 55.7846 72.5618 56.757C70.4356 57.7302 68.3743 58.4326 66.3803 58.8654C64.3854 59.2982 62.1392 59.6235 59.6409 59.8397C61.9195 61.4608 63.0591 64.0196 63.0591 67.5151V78.9199C63.0591 79.5678 63.3331 80.1087 63.8817 80.541C64.4296 80.9725 65.2949 81.0995 66.4787 80.9187C76.6497 78.1444 84.9458 73.1443 91.3674 65.9186C97.7884 58.6935 101 50.5588 101 41.5125C100.998 33.9826 98.7389 27.0373 94.2258 20.6766Z" fill="white"/>
</svg>
