<?xml version="1.0" standalone="no"?>
<!DOCTYPE svg PUBLIC "-//W3C//DTD SVG 20010904//EN"
 "http://www.w3.org/TR/2001/REC-SVG-20010904/DTD/svg10.dtd">
<svg version="1.0" xmlns="http://www.w3.org/2000/svg"
 width="512.000000pt" height="512.000000pt" viewBox="0 0 512.000000 512.000000"
 preserveAspectRatio="xMidYMid meet">
<metadata>
Created by potrace 1.16, written by Peter Selinger 2001-2019
</metadata>
<g transform="translate(0.000000,512.000000) scale(0.100000,-0.100000)"
fill="#000000" stroke="none">
<path d="M111 4806 c-25 -13 -58 -42 -75 -66 l-31 -42 0 -2136 0 -2137 24 -36
c13 -19 43 -48 65 -65 l41 -29 501 -3 501 -3 26 27 c52 52 40 139 -24 171 -18
10 -137 13 -476 13 l-453 0 0 850 0 850 1336 0 1336 0 29 29 c24 24 29 38 29
76 0 38 -5 52 -29 76 l-29 29 -601 0 -601 0 0 376 c0 390 -1 402 -44 436 -19
16 -57 18 -424 18 l-404 0 -29 -29 c-24 -24 -29 -38 -29 -76 0 -38 5 -52 29
-76 l29 -29 326 0 326 0 0 -310 0 -310 -625 0 -625 0 0 605 0 605 1190 0 1190
0 0 -352 c0 -319 2 -355 18 -374 44 -55 109 -59 158 -10 l34 34 0 351 0 351
570 0 570 0 0 -1002 c0 -673 4 -1016 11 -1041 21 -77 120 -100 178 -43 l26 26
0 1106 0 1106 -33 29 -32 29 -1940 0 -1940 0 0 395 0 395 585 0 585 0 0 -220
c0 -276 9 -300 110 -300 33 0 48 6 71 29 l29 29 0 231 0 231 650 0 c701 0 693
-1 721 52 21 39 13 98 -17 129 l-28 29 -1381 0 -1380 0 -44 -24z"/>
<path d="M3679 4801 c-23 -23 -29 -38 -29 -71 0 -52 13 -76 50 -95 25 -13 112
-15 620 -15 l590 0 0 -2060 0 -2060 -1435 0 -1435 0 0 499 0 500 156 3 156 3
30 34 c27 30 30 39 25 80 -4 33 -12 52 -32 68 l-26 23 -670 0 c-441 0 -677 -4
-690 -10 -10 -6 -26 -24 -34 -40 -23 -45 -19 -85 14 -122 l29 -33 416 -3 416
-3 0 -575 0 -576 29 -29 29 -29 1537 0 c1501 0 1537 0 1574 19 42 22 97 80
112 118 5 15 9 853 9 2134 0 2058 0 2111 -19 2147 -26 49 -54 78 -101 102 -38
19 -59 20 -665 20 l-627 0 -29 -29z"/>
<path d="M3377 2950 c-15 -12 -31 -38 -37 -58 -6 -24 -10 -327 -10 -859 l0
-822 -461 -3 -461 -3 -29 -33 c-33 -37 -37 -77 -14 -122 8 -16 24 -34 34 -40
13 -6 207 -10 555 -10 l535 0 28 24 28 24 0 937 0 937 -28 24 c-37 31 -103 33
-140 4z"/>
</g>
</svg>
