<?xml version="1.0" standalone="no"?>
<!DOCTYPE svg PUBLIC "-//W3C//DTD SVG 20010904//EN"
 "http://www.w3.org/TR/2001/REC-SVG-20010904/DTD/svg10.dtd">
<svg version="1.0" xmlns="http://www.w3.org/2000/svg"
 width="200.000000pt" height="200.000000pt" viewBox="0 0 200.000000 200.000000"
 preserveAspectRatio="xMidYMid meet">

<g transform="translate(0.000000,200.000000) scale(0.100000,-0.100000)"
fill="#000000" stroke="none">
<path d="M916 1704 c-94 -29 -176 -143 -176 -244 0 -48 30 -130 61 -165 l31
-35 -123 0 c-68 0 -130 -4 -136 -8 -7 -5 -85 -217 -174 -472 -119 -342 -159
-468 -152 -479 9 -14 93 -16 751 -19 732 -2 741 -2 752 18 9 16 -18 104 -147
476 -86 251 -163 462 -171 470 -10 10 -44 14 -133 14 l-120 0 29 43 c38 56 52
99 52 161 0 105 -81 211 -184 241 -61 18 -97 18 -160 -1z m140 -153 c60 -37
69 -124 18 -172 -37 -35 -113 -34 -149 2 -50 50 -42 133 17 169 41 25 74 25
114 1z"/>
</g>
</svg>
